<svg id="Group_34" data-name="Group 34" xmlns="http://www.w3.org/2000/svg" width="369.971" height="316.706" viewBox="0 0 369.971 316.706">
  <path id="Path_50" data-name="Path 50" d="M420.478,642.037c5.939-5.018,9.547-12.946,8.6-20.664s-6.806-14.813-14.407-16.452-16.265,2.9-18.574,10.323c-1.271-14.315-2.735-29.23-10.345-41.42-6.891-11.038-18.827-18.937-31.763-20.35s-26.556,3.924-34.623,14.134-10.043,25.054-4.393,36.776c4.162,8.635,11.831,15.062,19.866,20.29a128.214,128.214,0,0,0,87.69,19.184" transform="translate(-311.75 -328.636)" fill="#f2f2f2"/>
  <path id="Path_51" data-name="Path 51" d="M342.355,560.01a211.559,211.559,0,0,1,62.162,84.055c.593,1.453-1.766,2.085-2.353.649a209.383,209.383,0,0,0-61.534-82.978C339.412,560.743,341.147,559.026,342.355,560.01Z" transform="translate(-321.948 -330.952)" fill="#fff"/>
  <path id="Path_52" data-name="Path 52" d="M482.68,642.037c-5.939-5.018-9.547-12.946-8.6-20.664s6.806-14.813,14.407-16.452,16.265,2.9,18.574,10.323c1.271-14.315,2.735-29.23,10.345-41.42,6.891-11.038,18.827-18.937,31.763-20.35s26.556,3.924,34.623,14.134,10.043,25.054,4.393,36.776c-4.162,8.635-11.831,15.062-19.866,20.29a128.214,128.214,0,0,1-87.69,19.184" transform="translate(-369.85 -328.636)" fill="#f2f2f2"/>
  <path id="Path_53" data-name="Path 53" d="M590.434,560.01a211.56,211.56,0,0,0-62.162,84.055c-.593,1.453,1.766,2.085,2.353.649a209.2,209.2,0,0,1,61.534-82.978c1.218-.992-.517-2.709-1.725-1.725Z" transform="translate(-389.284 -330.952)" fill="#fff"/>
  <circle id="Ellipse_11" data-name="Ellipse 11" cx="19.894" cy="19.894" r="19.894" transform="translate(110.559 102.681)" fill="#f2f2f2"/>
  <path id="Path_54" data-name="Path 54" d="M389.561,287.388H526.628v7.5H407.059a53.534,53.534,0,0,0-53.534,53.534v85.2h-15a2.5,2.5,0,0,1-2.5-2.5v-90.2a53.534,53.534,0,0,1,53.534-53.534Z" transform="translate(-320.447 -233.392)" fill="#f2f2f2"/>
  <path id="Path_55" data-name="Path 55" d="M460.527,628.661V514.75H493.9V628.661a2.891,2.891,0,0,1-2.888,2.888h-27.6A2.891,2.891,0,0,1,460.527,628.661Z" transform="translate(-365.049 -314.843)" fill="#3f3d56"/>
  <path id="Path_56" data-name="Path 56" d="M325.027,428.5V335.868a55.681,55.681,0,0,1,55.618-55.618h141.4V431.7H328.236a3.212,3.212,0,0,1-3.209-3.209ZM520.762,281.534H380.645a54.4,54.4,0,0,0-54.334,54.335V428.5a1.927,1.927,0,0,0,1.925,1.925H520.762Z" transform="translate(-316.507 -230.835)" fill="#3f3d56"/>
  <path id="Path_57" data-name="Path 57" d="M480.636,336.093a11.565,11.565,0,0,1-11.552-11.552V241.755a1.927,1.927,0,0,0-1.925-1.925H422.236a3.213,3.213,0,0,1-3.209-3.209V206.459a3.212,3.212,0,0,1,3.209-3.209h66.743a3.212,3.212,0,0,1,3.209,3.209V324.542A11.565,11.565,0,0,1,480.636,336.093Z" transform="translate(-350.182 -203.25)" fill="#d81159"/>
  <path id="Path_58" data-name="Path 58" d="M619.607,278.25h0a36.5,36.5,0,0,1,36.58,36.427V420.123h71.876a10.887,10.887,0,0,1,10.91,10.864H583.027V314.677A36.5,36.5,0,0,1,619.607,278.25Z" transform="translate(-408.934 -230.118)" fill="#3f3d56"/>
  <path id="Path_59" data-name="Path 59" d="M626.312,325.893l7.575,31.289,148.169-35.869-7.575-31.289a2.335,2.335,0,0,0-1.513-1.665,2.307,2.307,0,0,0-.856-.129l-85.648-44.346a2.363,2.363,0,0,0-2.988.718L642.2,302.163l-15.561,21.706a.33.33,0,0,0-.057.268,2.337,2.337,0,0,0-.268,1.755Z" transform="translate(-424.417 -217.714)" fill="#fff"/>
  <path id="Path_60" data-name="Path 60" d="M626.762,324.138a.315.315,0,0,0,.13.2.359.359,0,0,0,.278.055.344.344,0,0,0,.192-.133l.053-.074.81-1.133,14.715-20.513,41.265-57.548a1.681,1.681,0,0,1,2.132-.511l84.985,44,.763.4a.843.843,0,0,0,.095.033,1.036,1.036,0,0,1,.174-.017.33.33,0,0,0,.186-.157.336.336,0,0,0-.14-.455l-.105-.056-85.648-44.346a2.363,2.363,0,0,0-2.988.718L642.38,302.163l-15.561,21.706A.33.33,0,0,0,626.762,324.138Z" transform="translate(-424.599 -217.714)" fill="#3f3d56"/>
  <path id="Path_61" data-name="Path 61" d="M694.688,320.388l3.3.366,24.478,2.712,16.227,1.8.958.107L759.9,309.552l.776-.606,4.783-3.735,17.015-13.288.1-.933,6.052-54.622a2.858,2.858,0,0,0-2.522-3.152l-80.769-8.947a2.86,2.86,0,0,0-3.152,2.522l-4.268,38.529-2.367,21.361-2.118,19.11-.982,8.875-.286,2.571a2.86,2.86,0,0,0,2.525,3.151Z" transform="translate(-448.025 -210.773)" fill="#e6e6e6"/>
  <path id="Path_62" data-name="Path 62" d="M728.607,294.774l34.986,3.875L776,300.023a4.2,4.2,0,0,0,.924-8.343l-15.432-1.709-31.959-3.544a4.2,4.2,0,0,0-.927,8.347Z" transform="translate(-459.749 -233.038)" fill="#fff"/>
  <path id="Path_63" data-name="Path 63" d="M725.655,318.914c.09.016.181.032.272.041l40.614,4.5,6.781.753a4.2,4.2,0,0,0,.923-8.346l-9.8-1.085-32.171-3.565-5.414-.6a4.2,4.2,0,0,0-1.2,8.3Z" transform="translate(-458.789 -241.703)" fill="#fff"/>
  <path id="Path_64" data-name="Path 64" d="M720.089,341.394a4.2,4.2,0,0,0,3.132,2.006l16.646,1.844,29.647,3.284.007,0,.948.106,4.783-3.735a4.156,4.156,0,0,0,0-.854,4.207,4.207,0,0,0-3.714-3.737l-4.118-.458-16.337-1.808-11.755-1.3-15.184-1.683a4.2,4.2,0,0,0-4.055,6.34Z" transform="translate(-457.819 -250.459)" fill="#fff"/>
  <path id="Path_65" data-name="Path 65" d="M754.774,265.3l8.705.964,3.845.427,5.808.643a4.2,4.2,0,0,0,.923-8.346L755.7,256.954a4.2,4.2,0,1,0-.927,8.344Z" transform="translate(-469.124 -222.48)" fill="#fff"/>
  <path id="Path_66" data-name="Path 66" d="M645.9,293.541l10.613,43.841,17.713,3.368,16.385,3.12,17.58,3.345,5.617,1.069a2.357,2.357,0,0,0,1.887-.457l4.506-3.52,2.853-2.228L743.3,326.263l-12.875-53.185a2.826,2.826,0,0,0-.8-1.386,2.855,2.855,0,0,0-2.647-.717L648,290.1A2.856,2.856,0,0,0,645.9,293.541Z" transform="translate(-431.429 -227.484)" fill="#d81159"/>
  <path id="Path_67" data-name="Path 67" d="M683.8,351.371a4.2,4.2,0,0,0,5.067,3.092l46.344-11.219a4.2,4.2,0,0,0,3.092-5.067,1.332,1.332,0,0,0-.045-.158,4.2,4.2,0,0,0-5.022-2.934L686.89,346.3a4.2,4.2,0,0,0-3.092,5.067Z" transform="translate(-444.992 -250.437)" fill="#fff"/>
  <path id="Path_68" data-name="Path 68" d="M690.082,372.174l16.385,3.12,34.709-8.4a4.2,4.2,0,0,0-1.975-8.159l-46.344,11.219a4.167,4.167,0,0,0-2.4,1.612,4.224,4.224,0,0,0-.37.611Z" transform="translate(-447.286 -258.908)" fill="#fff"/>
  <path id="Path_69" data-name="Path 69" d="M743.008,388.194l5.617,1.069a2.358,2.358,0,0,0,1.887-.457l4.506-3.52Z" transform="translate(-466.246 -268.464)" fill="#fff"/>
  <path id="Path_70" data-name="Path 70" d="M698.349,318.577a4.2,4.2,0,0,0,5.067,3.092l17.95-4.345a4.2,4.2,0,0,0,3.092-5.067,4.149,4.149,0,0,0-.773-1.6,4.2,4.2,0,0,0-4.294-1.5l-17.95,4.345A4.2,4.2,0,0,0,698.349,318.577Z" transform="translate(-450.205 -241.151)" fill="#fff"/>
  <path id="Path_71" data-name="Path 71" d="M683.6,359l17.583,3.346,5.616,1.069a2.367,2.367,0,0,0,1.885-.456l4.51-3.521-1.583.383-3.341,2.606a1.691,1.691,0,0,1-1.347.326l-4.158-.791-17.583-3.346Zm52.52-18.315.171.707.78-.606ZM683.6,359l17.583,3.346,5.616,1.069a2.367,2.367,0,0,0,1.885-.456l4.51-3.521-1.583.383-3.341,2.606a1.691,1.691,0,0,1-1.347.326l-4.158-.791-17.583-3.346Zm0,0,17.583,3.346,5.616,1.069a2.367,2.367,0,0,0,1.885-.456l4.51-3.521-1.583.383-3.341,2.606a1.691,1.691,0,0,1-1.347.326l-4.158-.791-17.583-3.346Zm-57.285-8.206,19.841,81.959a2.353,2.353,0,0,0,2.838,1.732l143.6-34.763a2.353,2.353,0,0,0,1.732-2.838l-19.841-81.959a2.335,2.335,0,0,0-1.513-1.665,2.307,2.307,0,0,0-.856-.129,2.22,2.22,0,0,0-.972.256,2.038,2.038,0,0,0-.39.242l-11.785,9.2L741.85,336.2l-5.734,4.479v0h0L715.085,357.1l-3.476,2.72-3.341,2.606a1.692,1.692,0,0,1-1.347.326l-4.158-.791-17.583-3.346-17.6-3.347-38.545-7.335a2.3,2.3,0,0,0-.993.021,2.355,2.355,0,0,0-1.148.665,2.644,2.644,0,0,0-.316.418A2.337,2.337,0,0,0,626.312,350.792ZM683.6,359l17.583,3.346,5.616,1.069a2.367,2.367,0,0,0,1.885-.456l4.51-3.521-1.583.383-3.341,2.606a1.691,1.691,0,0,1-1.347.326l-4.158-.791-17.583-3.346Zm0,0,17.583,3.346,5.616,1.069a2.367,2.367,0,0,0,1.885-.456l4.51-3.521-1.583.383-3.341,2.606a1.691,1.691,0,0,1-1.347.326l-4.158-.791-17.583-3.346Zm0,0,17.583,3.346,5.616,1.069a2.367,2.367,0,0,0,1.885-.456l4.51-3.521-1.583.383-3.341,2.606a1.691,1.691,0,0,1-1.347.326l-4.158-.791-17.583-3.346Z" transform="translate(-424.417 -242.613)" fill="#fff"/>
  <path id="Path_72" data-name="Path 72" d="M683.6,359l17.583,3.346,5.616,1.069a2.367,2.367,0,0,0,1.885-.456l4.51-3.521-1.583.383-3.341,2.606a1.691,1.691,0,0,1-1.347.326l-4.158-.791-17.583-3.346Zm52.52-18.315.171.707.78-.606ZM683.6,359l17.583,3.346,5.616,1.069a2.367,2.367,0,0,0,1.885-.456l4.51-3.521-1.583.383-3.341,2.606a1.691,1.691,0,0,1-1.347.326l-4.158-.791-17.583-3.346Zm0,0,17.583,3.346,5.616,1.069a2.367,2.367,0,0,0,1.885-.456l4.51-3.521-1.583.383-3.341,2.606a1.691,1.691,0,0,1-1.347.326l-4.158-.791-17.583-3.346Zm-56.364-9.911.087.065c.015-.024.04-.045.059-.07a1.7,1.7,0,0,1,1.531-.493l38.3,7.286L683.6,359l17.583,3.346,5.616,1.069a2.367,2.367,0,0,0,1.885-.456l4.51-3.521-1.583.383-3.341,2.606a1.691,1.691,0,0,1-1.347.326l-4.158-.791-17.583-3.346-17.6-3.347-38.545-7.335a2.3,2.3,0,0,0-.993.021Zm-.921,1.7,19.841,81.959a2.353,2.353,0,0,0,2.838,1.732l143.6-34.763a2.353,2.353,0,0,0,1.732-2.838l-19.841-81.959a2.335,2.335,0,0,0-1.513-1.665,2.307,2.307,0,0,0-.856-.129,2.22,2.22,0,0,0-.972.256,2.038,2.038,0,0,0-.39.242l-11.785,9.2L741.85,336.2l-5.734,4.479v0h0L715.085,357.1l-3.476,2.72-3.341,2.606a1.692,1.692,0,0,1-1.347.326l-4.158-.791-17.583-3.346-17.6-3.347-38.545-7.335a2.3,2.3,0,0,0-.993.021,2.355,2.355,0,0,0-1.148.665,2.644,2.644,0,0,0-.316.418A2.337,2.337,0,0,0,626.312,350.792Zm.654-.158a1.667,1.667,0,0,1,.3-1.406.219.219,0,0,1,.058-.075c.015-.024.04-.045.059-.07a1.7,1.7,0,0,1,1.531-.493l38.3,7.286L683.6,359l17.583,3.346,5.616,1.069a2.367,2.367,0,0,0,1.885-.456l4.51-3.521,2.852-2.228,20.245-15.818.78-.606,4.779-3.733,17.018-13.29,12.3-9.608a1.67,1.67,0,0,1,.633-.306,1.281,1.281,0,0,1,.2-.032,1.029,1.029,0,0,1,.174-.017,1.72,1.72,0,0,1,.578.094,1.685,1.685,0,0,1,1.082,1.189l19.841,81.959a1.681,1.681,0,0,1-1.24,2.031l-143.6,34.762a1.68,1.68,0,0,1-2.026-1.241ZM683.6,359l17.583,3.346,5.616,1.069a2.367,2.367,0,0,0,1.885-.456l4.51-3.521-1.583.383-3.341,2.606a1.691,1.691,0,0,1-1.347.326l-4.158-.791-17.583-3.346Zm0,0,17.583,3.346,5.616,1.069a2.367,2.367,0,0,0,1.885-.456l4.51-3.521-1.583.383-3.341,2.606a1.691,1.691,0,0,1-1.347.326l-4.158-.791-17.583-3.346Zm0,0,17.583,3.346,5.616,1.069a2.367,2.367,0,0,0,1.885-.456l4.51-3.521-1.583.383-3.341,2.606a1.691,1.691,0,0,1-1.347.326l-4.158-.791-17.583-3.346Z" transform="translate(-424.417 -242.613)" fill="#3f3d56"/>
  <path id="Path_73" data-name="Path 73" d="M827.047,416.925a5.216,5.216,0,0,1,3.838-6.29l18.124-4.387a5.21,5.21,0,1,1,2.452,10.128l-18.124,4.387A5.216,5.216,0,0,1,827.047,416.925Z" transform="translate(-496.301 -275.92)" fill="#d81159"/>
  <circle id="Ellipse_12" data-name="Ellipse 12" cx="4.492" cy="4.492" r="4.492" transform="translate(125.962 116.799)" fill="#fff"/>
</svg>
