<svg xmlns="http://www.w3.org/2000/svg" width="24" height="24" viewBox="0 0 24 24">
  <g id="twitter" transform="translate(12 12)">
    <g id="twitter-2" data-name="twitter" transform="translate(-12 -12)">
      <g id="twitter-3" data-name="twitter">
        <path id="Path_36" data-name="Path 36" d="M0,0H24V24H0" fill="#fff" opacity="0"/>
        <path id="Path_37" data-name="Path 37" d="M8.08,20A11.07,11.07,0,0,0,19.52,9,8.09,8.09,0,0,0,21,6.16a.44.44,0,0,0-.62-.51,1.88,1.88,0,0,1-2.16-.38,3.89,3.89,0,0,0-5.58-.17A4.13,4.13,0,0,0,11.49,9C8.14,9.2,5.84,7.61,4,5.43a.43.43,0,0,0-.75.24,9.68,9.68,0,0,0,4.6,10.05A6.73,6.73,0,0,1,3.38,18a.45.45,0,0,0-.14.84A11,11,0,0,0,8.08,20" fill="#fff"/>
      </g>
    </g>
  </g>
</svg>
